<svg width="22" height="19" viewBox="0 0 22 19" fill="none" xmlns="http://www.w3.org/2000/svg">
<path fill-rule="evenodd" clip-rule="evenodd" d="M14.0215 0.343401C14.5298 0.256319 15.0991 0.227243 15.6349 0.317885C16.5918 0.479768 17.4756 0.924496 18.1743 1.59126C18.631 1.60158 19.0798 1.51161 19.4769 1.38335C19.813 1.2748 20.097 1.14373 20.2959 1.04009C20.3948 0.988559 20.4712 0.944601 20.5209 0.914841C20.5457 0.899984 20.5638 0.88874 20.5745 0.881949L20.584 0.875888C20.8808 0.67816 21.276 0.716643 21.5289 0.968149C21.7818 1.21971 21.8226 1.61463 21.6263 1.91254C21.4186 2.22783 21.1302 2.7899 20.8072 3.41966C20.7564 3.51868 20.7047 3.61937 20.6524 3.72104C20.4671 4.08101 20.2771 4.44482 20.1 4.75695C19.9888 4.95294 19.8699 5.15191 19.75 5.32385V5.59763C19.7576 6.60326 19.6423 7.60364 19.4082 8.57686C19.2609 9.18921 19.0666 9.7908 18.8264 10.3762C18.204 11.8928 17.2856 13.2703 16.1249 14.428C14.9641 15.5858 13.5843 16.5006 12.0661 17.1192C10.5492 17.7372 8.92443 18.047 7.28658 18.0305C4.91227 18.0326 2.5879 17.3485 0.593179 16.0606C0.299378 15.8709 0.175679 15.5033 0.295015 15.1746C0.414352 14.8459 0.745045 14.6433 1.09212 14.6862C1.39248 14.7234 1.69489 14.7415 1.99754 14.7405C3.08499 14.7375 4.15173 14.4972 5.12559 14.0446C4.81604 13.9037 4.52051 13.7299 4.24435 13.5251C3.43264 12.9232 2.82873 12.0833 2.51666 11.1221C2.43556 10.8724 2.491 10.5984 2.66282 10.3998C2.66589 10.3963 2.669 10.3927 2.67214 10.3892C2.48861 10.2256 2.31688 10.0474 2.15878 9.85578C1.44747 8.99357 1.05579 7.91214 1.05001 6.7944L1.04999 6.79053L1.05 6.74053C1.05 6.47466 1.19075 6.22867 1.41995 6.09395C1.47806 6.05979 1.53964 6.03409 1.60299 6.01685C1.26466 5.34177 1.08871 4.59632 1.09 3.84006C1.0896 2.98329 1.3134 2.14133 1.73916 1.39782C1.86207 1.18319 2.0829 1.04295 2.32943 1.02298C2.57595 1.003 2.81648 1.10585 2.97234 1.2979C3.9349 2.48391 5.13619 3.45417 6.49817 4.14564C7.19831 4.50109 7.93286 4.77879 8.68866 4.97522C9.1124 5.08535 9.54281 5.16994 9.97758 5.22836C9.95843 4.50511 10.1012 3.78224 10.401 3.11431C10.8407 2.13448 11.5931 1.3283 12.5404 0.822212C12.9415 0.607883 13.474 0.437172 14.0215 0.343401ZM2.74327 7.8909C2.87292 8.25578 3.06579 8.5981 3.31584 8.9012C3.80717 9.49675 4.48911 9.9043 5.24633 10.0549C5.58362 10.122 5.83205 10.4099 5.84908 10.7534C5.8661 11.0969 5.64735 11.4079 5.31836 11.508C5.04586 11.591 4.76668 11.6487 4.48433 11.6808C4.67091 11.9213 4.89039 12.1368 5.1378 12.3202C5.69898 12.7364 6.37593 12.9672 7.07444 12.9807C7.39135 12.9868 7.67022 13.1914 7.77105 13.492C7.87187 13.7925 7.77289 14.1239 7.52378 14.3199C6.47461 15.1455 5.26141 15.7211 3.97586 16.015C5.04135 16.3562 6.15879 16.5319 7.28908 16.5305L7.29779 16.5305C8.73785 16.5455 10.1664 16.2734 11.5001 15.73C12.8339 15.1867 14.0459 14.383 15.0656 13.366C16.0852 12.349 16.8919 11.139 17.4387 9.80668C17.6497 9.29246 17.8204 8.764 17.9498 8.22609C18.1556 7.37032 18.2569 6.49065 18.25 5.60639L18.25 5.60052V5.07053C18.25 4.88867 18.3161 4.71301 18.4359 4.57624C18.5052 4.4972 18.6264 4.31464 18.7954 4.01674C18.956 3.73362 19.1338 3.39371 19.3187 3.03453C19.3299 3.0128 19.3411 2.99097 19.3524 2.96903C18.8728 3.07318 18.3292 3.12777 17.7594 3.06618C17.579 3.04668 17.4117 2.96239 17.2886 2.82895C16.7858 2.28362 16.1161 1.92061 15.3847 1.79687C15.0602 1.74196 14.6678 1.75453 14.2747 1.82187C13.8476 1.89503 13.4759 2.02304 13.2472 2.14522C12.5929 2.49479 12.0732 3.05163 11.7695 3.72842C11.4658 4.4052 11.3953 5.16365 11.5691 5.88481C11.6245 6.11472 11.5683 6.3573 11.4173 6.53933C11.2663 6.72136 11.0383 6.82151 10.8021 6.80957C9.95869 6.76691 9.12421 6.63826 8.31134 6.42699C7.45144 6.2035 6.61571 5.88755 5.81913 5.48314C4.64635 4.88773 3.5783 4.11063 2.65346 3.18294C2.61127 3.39855 2.58985 3.61858 2.59 3.84003L2.59 3.84195C2.58895 4.39267 2.7241 4.9351 2.98341 5.42095C3.24272 5.9068 3.61814 6.32099 4.07626 6.62664C4.35428 6.81214 4.47601 7.15922 4.37475 7.47774C4.2735 7.79626 3.9737 8.00934 3.6396 8.00025C3.33701 7.99201 3.03694 7.95521 2.74327 7.8909Z" fill="#828282"/>
</svg>
